<svg width="30" height="30" viewBox="0 0 30 30" fill="none" xmlns="http://www.w3.org/2000/svg">
<path d="M12.8116 10.0688H8.7257C8.07619 10.0688 7.54785 10.5972 7.54785 11.2466V13.2753H13.9895V11.2466C13.9895 10.5972 13.4611 10.0688 12.8116 10.0688Z" fill="#5D6D7F"/>
<path d="M21.2745 10.0688H17.1886C16.5391 10.0688 16.0107 10.5972 16.0107 11.2466V13.2753H22.4524V11.2466C22.4524 10.5972 21.9239 10.0688 21.2745 10.0688Z" fill="#5D6D7F"/>
<path d="M27.7156 15.2965H2.28439C1.02475 15.2965 0 16.3213 0 17.5809V22.3304H30V17.5809C30 16.3213 28.9753 15.2965 27.7156 15.2965Z" fill="#5D6D7F"/>
<path d="M25.8316 2.81958H4.16832C2.49699 2.81958 1.13721 4.17937 1.13721 5.85069V13.4317C1.50271 13.3305 1.88709 13.2753 2.28436 13.2753H5.52647V11.2466C5.52647 9.48257 6.96154 8.04743 8.72563 8.04743H12.8115C13.6575 8.04743 14.4273 8.37813 15 8.91632C15.5727 8.37813 16.3424 8.04743 17.1884 8.04743H21.2743C23.0383 8.04743 24.4735 9.48263 24.4735 11.2466V13.2753H27.7156C28.1128 13.2753 28.4972 13.3305 28.8627 13.4317V5.85069C28.8627 4.17937 27.5029 2.81958 25.8316 2.81958Z" fill="#5D6D7F"/>
<path d="M26.8413 24.3517V26.1698C26.8413 26.728 27.2938 27.1804 27.8519 27.1804C28.4101 27.1804 28.8626 26.7279 28.8626 26.1698V24.3517H26.8413Z" fill="#5D6D7F"/>
<path d="M1.13721 24.3517V26.1698C1.13721 26.728 1.58973 27.1804 2.14783 27.1804C2.706 27.1804 3.15846 26.7279 3.15846 26.1698V24.3517H1.13721Z" fill="#5D6D7F"/>
</svg>
