<svg width="97" height="97" viewBox="0 0 97 97" fill="none" xmlns="http://www.w3.org/2000/svg">
<circle opacity="0.1" cx="48.5" cy="48.5" r="48.5" fill="white"/>
<path d="M71.2333 67.3999H68.9333V52.8332C68.933 52.4098 68.5895 52.0669 68.1661 52.0671C67.9162 52.0673 67.6821 52.1892 67.5388 52.3939L56.8054 67.7272C56.5628 68.0743 56.6474 68.5523 56.9944 68.7948C57.1231 68.8848 57.2763 68.9331 57.4333 68.9332H67.4V71.2332C67.4 71.6566 67.7433 71.9999 68.1667 71.9999C68.5901 71.9999 68.9333 71.6566 68.9333 71.2332V68.9332H71.2333C71.6567 68.9332 72 68.5899 72 68.1665C72 67.7432 71.6567 67.3999 71.2333 67.3999ZM67.4 67.3999H58.9053L67.4 55.2651V67.3999Z" fill="white"/>
<path d="M57.4331 70.4668H48.3565L56.7952 60.53C56.8144 60.5072 56.8323 60.4834 56.8489 60.4587C58.4365 58.1091 57.9077 54.9279 55.6452 53.2183C52.8943 51.2417 49.062 51.8695 47.0855 54.6204C46.336 55.6636 45.9329 56.9156 45.9331 58.2001C45.9331 58.6235 46.2764 58.9668 46.6998 58.9668C47.1232 58.9668 47.4664 58.6235 47.4664 58.2001C47.4662 55.6595 49.5255 53.5999 52.066 53.5996C53.0289 53.5995 53.9676 53.9016 54.7498 54.4634C56.3346 55.6777 56.7036 57.914 55.5931 59.5732L46.1156 70.7374C45.8416 71.0603 45.8813 71.544 46.2041 71.818C46.3426 71.9355 46.5182 72 46.6998 72.0001H57.4331C57.8565 72.0001 58.1998 71.6568 58.1998 71.2334C58.1998 70.81 57.8565 70.4668 57.4331 70.4668Z" fill="white"/>
<path d="M46.7169 66.6479C46.7329 66.2248 46.4027 65.8689 45.9796 65.8529C45.9795 65.8529 45.9794 65.8529 45.9793 65.8529C35.9772 65.4816 27.9493 57.4681 27.5602 47.4667H30.6C31.0234 47.4667 31.3667 47.1234 31.3667 46.7C31.3667 46.2766 31.0234 45.9333 30.6 45.9333H27.5602C27.9438 35.9495 35.9494 27.9442 45.9333 27.5609V29.8333C45.9333 30.2567 46.2766 30.6 46.7 30.6C47.1234 30.6 47.4667 30.2567 47.4667 29.8333V27.5609C57.3139 27.9418 65.2616 35.7393 65.8299 45.5776L62.8399 42.5876C62.5353 42.2934 62.05 42.3018 61.7558 42.6064C61.4689 42.9035 61.4689 43.3745 61.7558 43.6717L66.0353 47.9512C66.1159 48.0488 66.2198 48.1244 66.3374 48.1712C66.3674 48.1802 66.3979 48.1877 66.4286 48.1935C66.4813 48.2124 66.5357 48.2256 66.5912 48.2326C66.5988 48.2326 66.6057 48.2326 66.6134 48.2326C66.6211 48.2326 66.628 48.2326 66.6349 48.2326C66.6932 48.2282 66.7509 48.2169 66.8066 48.1988C66.8381 48.195 66.8694 48.1892 66.9001 48.1812C67.0039 48.1443 67.0984 48.0852 67.1769 48.0079L71.5147 43.6717C71.8088 43.3671 71.8005 42.8818 71.4959 42.5876C71.1988 42.3007 70.7278 42.3007 70.4306 42.5876L67.3663 45.6497C66.8186 34.6605 57.7573 26.0269 46.7544 26.0107C46.7353 26.01 46.7192 26 46.7 26C46.6808 26 46.6647 26.01 46.6456 26.0107C35.2558 26.0264 26.0264 35.2558 26.0107 46.6456C26.0107 46.6647 26 46.6808 26 46.7C26 46.7192 26.01 46.7353 26.0107 46.7544C26.0298 57.8631 34.8216 66.9724 45.9226 67.3854H45.951C46.363 67.3853 46.7012 67.0596 46.7169 66.6479Z" fill="white"/>
<path d="M57.0005 36.3998C56.7011 36.1005 56.2158 36.1005 55.9164 36.3998L47.6778 44.6376C47.0554 44.3601 46.3444 44.3601 45.722 44.6376L41.8212 40.7368C41.5167 40.4427 41.0313 40.4511 40.7372 40.7557C40.4502 41.0528 40.4502 41.5238 40.7372 41.8209L44.6303 45.714C44.0837 46.8582 44.5682 48.229 45.7125 48.7756C46.5909 49.1951 47.6383 49.0153 48.3264 48.3268C49.0182 47.6408 49.1964 46.5905 48.7695 45.7148L57.0005 37.4838C57.2997 37.1844 57.2997 36.6991 57.0005 36.3998ZM47.2425 47.2418C47.2424 47.2419 47.2424 47.2419 47.2423 47.242C46.9391 47.5319 46.4615 47.5319 46.1583 47.242C45.8588 46.9426 45.8588 46.4572 46.1581 46.1577C46.4575 45.8582 46.9429 45.8582 47.2423 46.1575C47.5418 46.4569 47.5418 46.9424 47.2425 47.2418Z" fill="white"/>
</svg>
