<svg width="97" height="97" viewBox="0 0 97 97" fill="none" xmlns="http://www.w3.org/2000/svg">
<circle opacity="0.1" cx="48.5" cy="48.5" r="48.5" fill="white"/>
<path d="M60.3876 42.2982C60.1106 42.1335 59.828 41.9641 59.5397 41.7807L59.5409 39.4166H59.5415C60.0713 39.4166 60.4999 38.988 60.4999 38.4583V32.7083C60.4999 29.0098 57.4901 26 53.7915 26H43.2499C42.1924 26 41.3333 26.8601 41.3333 27.9166H39.4166C38.3591 27.9166 37.5 28.7767 37.5 29.8333V31.75C37.5 32.8066 38.3592 33.6666 39.4166 33.6666H41.3333C41.3333 34.7232 42.1924 35.5833 43.2499 35.5833H44.3342L41.4942 39.8434C41.2976 40.1373 41.2789 40.5153 41.4474 40.827C41.6139 41.1387 41.9377 41.3333 42.2915 41.3333H44.2082C44.416 41.3333 44.6181 41.2659 44.7828 41.1415L50.9165 36.5412V38.4584C50.9165 38.9881 51.3452 39.4167 51.8749 39.4167V41.7864L51.7738 41.8565C48.2288 44.272 45.1665 46.359 45.1665 61.4584V68.1667C45.1665 70.2808 46.8867 72 48.9999 72H62.4165C64.5298 72 66.2499 70.2808 66.2499 68.1666V61.4583C66.2499 46.5564 64.0225 44.4694 60.3876 42.2982ZM41.3333 31.75H39.4166V29.8334H41.3333V31.75ZM44.2757 39.1265L46.6378 35.5833H49.0005L44.2757 39.1265ZM43.2499 33.6666V27.9166H53.7915C56.4345 27.9166 58.5832 30.0663 58.5832 32.7083V37.5H52.8332V34.625C52.8332 34.0953 52.4045 33.6666 51.8748 33.6666H43.2499ZM52.852 43.44L53.3779 43.0797C53.6381 42.901 53.7915 42.6062 53.7915 42.2917V39.4167H57.6249L57.623 42.2926C57.623 42.608 57.7765 42.9019 58.0367 43.0815C58.5028 43.4044 58.9595 43.6786 59.4049 43.9444C61.6572 45.2895 63.5205 46.4137 64.1248 54.75H47.3398C48.0623 46.7051 50.2335 45.2243 52.852 43.44ZM64.3333 68.1666C64.3333 69.2232 63.4741 70.0833 62.4166 70.0833H48.9999C47.9424 70.0833 47.0833 69.2232 47.0833 68.1666V66.25H64.3333V68.1666ZM64.3333 64.3334H47.0833V61.4584C47.0833 59.6695 47.1252 58.0835 47.2036 56.6667H64.237C64.2997 58.0819 64.3334 59.6676 64.3334 61.4584V64.3334H64.3333Z" fill="white"/>
<path d="M35.5834 30.7916C35.5834 30.2619 35.1547 29.8333 34.625 29.8333H32.7084C32.1786 29.8333 31.75 30.262 31.75 30.7916C31.75 31.3213 32.1786 31.75 32.7084 31.75H34.625C35.1547 31.75 35.5834 31.3213 35.5834 30.7916Z" fill="white"/>
<path d="M33.2382 27.8154L35.153 28.7738C35.2897 28.8421 35.4376 28.8749 35.5817 28.8749C35.9317 28.8749 36.2705 28.6812 36.439 28.3451C36.6748 27.8726 36.4839 27.296 36.0103 27.0592L34.0954 26.1009C33.6293 25.8679 33.0472 26.0551 32.8095 26.5296C32.5737 27.0022 32.7646 27.5787 33.2382 27.8154Z" fill="white"/>
<path d="M35.1548 32.8094L33.2382 33.7677C32.7646 34.0044 32.5737 34.5801 32.8095 35.0536C32.978 35.3896 33.3168 35.5834 33.6668 35.5834C33.8109 35.5834 33.9569 35.5506 34.0955 35.4823L36.0121 34.5239C36.4857 34.2872 36.6766 33.7115 36.4407 33.238C36.203 32.7645 35.6303 32.5755 35.1548 32.8094Z" fill="white"/>
</svg>
