<svg width="97" height="97" viewBox="0 0 97 97" fill="none" xmlns="http://www.w3.org/2000/svg">
<circle opacity="0.1" cx="48.5" cy="48.5" r="48.5" fill="white"/>
<g clip-path="url(#clip0)">
<path d="M61.0337 47.2339H56.4338C55.5869 47.2339 54.9004 47.9204 54.9004 48.7673V53.3673C54.9004 54.2141 55.5869 54.9006 56.4338 54.9006H64.8671C65.1458 54.9006 65.4026 54.7494 65.5377 54.5056C65.6728 54.2618 65.665 53.9639 65.5173 53.7276L61.6839 47.5943C61.5438 47.37 61.2981 47.2339 61.0337 47.2339ZM56.4338 53.3672V48.7672H60.6091L63.4841 53.3672H56.4338Z" fill="white"/>
<path d="M43.4001 54.9004H49.5334C50.3803 54.9004 51.0668 54.2139 51.0668 53.367V48.767C51.0668 47.9201 50.3803 47.2336 49.5334 47.2336H43.4001C42.5532 47.2336 41.8667 47.9201 41.8667 48.767V53.367C41.8667 54.2139 42.5532 54.9004 43.4001 54.9004ZM43.4001 48.767H49.5334V53.367H43.4001V48.767Z" fill="white"/>
<path d="M37.2662 47.2339H31.133C30.2861 47.2339 29.5996 47.9204 29.5996 48.7673V53.3673C29.5996 54.2141 30.2861 54.9006 31.133 54.9006H37.2663C38.1132 54.9006 38.7997 54.2141 38.7997 53.3673V48.7673C38.7996 47.9204 38.1131 47.2339 37.2662 47.2339ZM37.2662 53.3672H31.133V48.7672H37.2663V53.3672H37.2662Z" fill="white"/>
<path d="M34.9664 57.2004H33.4331C33.0097 57.2004 32.6665 57.5436 32.6665 57.9671C32.6665 58.3905 33.0098 58.7337 33.4331 58.7337H34.9665C35.3899 58.7337 35.7331 58.3905 35.7331 57.9671C35.7331 57.5436 35.3898 57.2004 34.9664 57.2004Z" fill="white"/>
<path d="M45.6997 57.2004C45.2763 57.2004 44.9331 57.5436 44.9331 57.9671C44.9331 58.3905 45.2763 58.7337 45.6997 58.7337H47.2331C47.6565 58.7337 47.9997 58.3905 47.9997 57.9671C47.9997 57.5436 47.6565 57.2004 47.2331 57.2004H45.6997Z" fill="white"/>
<path d="M59.5002 57.2004H57.9668C57.5434 57.2004 57.2002 57.5436 57.2002 57.9671C57.2002 58.3905 57.5434 58.7337 57.9668 58.7337H59.5002C59.9236 58.7337 60.2668 58.3905 60.2668 57.9671C60.2668 57.5436 59.9236 57.2004 59.5002 57.2004Z" fill="white"/>
<path d="M66.8791 34.3675L63.3332 31.5324V28.8338C63.3332 28.4103 62.99 28.0671 62.5666 28.0671C62.1431 28.0671 61.7999 28.4103 61.7999 28.8338V31.5324L58.2541 34.369C57.9234 34.6336 57.8698 35.1163 58.1345 35.447C58.3991 35.7777 58.8817 35.8313 59.2124 35.5666L61.7999 33.495V36.9496L61.2579 37.4917C61.0586 37.6841 60.9787 37.9692 61.0488 38.2373C61.119 38.5054 61.3284 38.7146 61.5964 38.7848C61.8645 38.8549 62.1494 38.775 62.342 38.5757L62.5666 38.3511L62.7912 38.5757C63.092 38.8663 63.5702 38.8621 63.8659 38.5664C64.1617 38.2706 64.1658 37.7924 63.8752 37.4917L63.3332 36.9496V33.495L65.9207 35.565C66.2514 35.8296 66.734 35.7761 66.9987 35.4455C67.2633 35.1147 67.2098 34.6322 66.8791 34.3675Z" fill="white"/>
<path d="M68.7 41.8674C69.9702 41.8674 71 40.8377 71 39.5674V27.3007C71 26.0305 69.9703 25.0007 68.7 25.0007H56.4334C55.1632 25.0007 54.1334 26.0304 54.1334 27.3007V39.5674C54.1334 40.8376 55.1632 41.8674 56.4334 41.8674H61.8V44.1781C61.7716 44.1781 61.7456 44.1674 61.7172 44.1674H27.3C26.0298 44.1674 25 45.1971 25 46.4674V64.8674C25 66.1376 26.0297 67.1674 27.3 67.1674H29.669C30.041 69.3798 31.9565 71 34.2 71C36.4435 71 38.3589 69.3798 38.731 67.1674H56.5024C56.8744 69.3798 58.7899 71 61.0334 71C63.2769 71 65.1923 69.3798 65.5644 67.1674H68.7C69.9702 67.1674 71 66.1376 71 64.8674V57.6408C71 57.2097 70.8789 56.7874 70.6504 56.4218L63.6676 45.2484C63.5721 45.0999 63.46 44.9628 63.3333 44.8398V41.8674H68.7ZM34.2 69.4674C32.5064 69.4674 31.1334 68.0944 31.1334 66.4007C31.1334 64.7071 32.5064 63.3341 34.2 63.3341C35.8936 63.3341 37.2666 64.7071 37.2666 66.4007C37.2666 68.0944 35.8936 69.4674 34.2 69.4674ZM61.0334 69.4674C59.3397 69.4674 57.9667 68.0944 57.9667 66.4007C57.9667 64.7071 59.3397 63.3341 61.0334 63.3341C62.727 63.3341 64.1 64.7071 64.1 66.4007C64.1 68.0944 62.727 69.4674 61.0334 69.4674ZM69.3501 57.2345C69.4263 57.3563 69.4666 57.4971 69.4666 57.6409V62.5675H67.1666C66.7432 62.5675 66.4 62.9107 66.4 63.3341C66.4 63.7575 66.7432 64.1007 67.1666 64.1007H69.4666V64.8674C69.4666 65.2908 69.1234 65.634 68.7 65.634H65.5644C65.1923 63.4216 63.2769 61.8015 61.0334 61.8015C58.7899 61.8015 56.8744 63.4216 56.5024 65.634H38.731C38.3589 63.4216 36.4435 61.8015 34.2 61.8015C31.9565 61.8015 30.041 63.4216 29.669 65.634H27.3C26.8766 65.634 26.5334 65.2908 26.5334 64.8674V64.1007H28.0667C28.4902 64.1007 28.8334 63.7575 28.8334 63.3341C28.8334 62.9107 28.4902 62.5675 28.0667 62.5675H26.5334V46.4675C26.5334 46.044 26.8766 45.7008 27.3 45.7008H61.7172C61.9816 45.6999 62.2274 45.8363 62.3666 46.0612L69.3501 57.2345ZM56.4334 40.3341C56.0099 40.3341 55.6667 39.9909 55.6667 39.5675V27.3007C55.6667 26.8773 56.0099 26.5341 56.4334 26.5341H68.7C69.1234 26.5341 69.4666 26.8773 69.4666 27.3007V39.5674C69.4666 39.9908 69.1234 40.334 68.7 40.334H56.4334V40.3341Z" fill="white"/>
<path d="M54.9002 62.5671H40.3335C39.9101 62.5671 39.5669 62.9103 39.5669 63.3338C39.5669 63.7572 39.9101 64.1004 40.3335 64.1004H54.9002C55.3236 64.1004 55.6668 63.7572 55.6668 63.3338C55.6668 62.9103 55.3236 62.5671 54.9002 62.5671Z" fill="white"/>
</g>
<defs>
<clipPath id="clip0">
<rect width="46" height="46" fill="white" transform="translate(25 25)"/>
</clipPath>
</defs>
</svg>
