<svg width="30" height="30" viewBox="0 0 30 30" fill="none" xmlns="http://www.w3.org/2000/svg">
<path d="M17.9641 8.72839H12.0359C10.5027 8.72839 9.25537 9.97574 9.25537 11.509V13.1097H20.7447V11.509C20.7447 9.97585 19.4973 8.72839 17.9641 8.72839Z" fill="#5D6D7F"/>
<path d="M24.664 0.288452H5.33594C3.41031 0.288452 1.84375 1.85507 1.84375 3.7807V13.2506C2.22326 13.1593 2.61865 13.1096 3.02576 13.1096H7.22605V11.5089C7.22605 8.85673 9.38377 6.69902 12.036 6.69902H17.9641C20.6162 6.69902 22.774 8.85673 22.774 11.5089V13.1096H26.9743C27.3814 13.1096 27.7769 13.1593 28.1563 13.2506V3.7807C28.1562 1.85507 26.5896 0.288452 24.664 0.288452Z" fill="#5D6D7F"/>
<path d="M26.9742 15.139H21.7593H8.24068H3.02578C1.35732 15.139 0 16.4964 0 18.1648V24.2135H30V18.1648C30 16.4964 28.6427 15.139 26.9742 15.139Z" fill="#5D6D7F"/>
<path d="M1.84375 26.2429V28.6969C1.84375 29.2573 2.29803 29.7116 2.85842 29.7116C3.41881 29.7116 3.87308 29.2573 3.87308 28.6969V26.2429H1.84375Z" fill="#5D6D7F"/>
<path d="M26.127 26.2429V28.6969C26.127 29.2573 26.5812 29.7116 27.1416 29.7116C27.702 29.7116 28.1563 29.2573 28.1563 28.6969V26.2429H26.127Z" fill="#5D6D7F"/>
</svg>
