<svg width="97" height="97" viewBox="0 0 97 97" fill="none" xmlns="http://www.w3.org/2000/svg">
<circle opacity="0.1" cx="48.5" cy="48.5" r="48.5" fill="white"/>
<g clip-path="url(#clip0)">
<path d="M55.56 31.6841C55.0977 28.4438 52.2772 26 48.9997 26C46.8919 26 44.89 27.0171 43.6454 28.7218C43.3912 29.0695 43.4672 29.5571 43.8149 29.8113C44.1614 30.0647 44.6502 29.9895 44.904 29.6414C45.8567 28.3378 47.3875 27.5594 48.9995 27.5594C51.5061 27.5594 53.6626 29.4274 54.0162 31.9041C54.0719 32.2931 54.4056 32.5738 54.7873 32.5738C54.8236 32.5738 54.8611 32.5711 54.8983 32.566C55.3245 32.5051 55.6208 32.1101 55.56 31.6841Z" fill="white"/>
<path d="M66.8206 40.4121L64.4817 36.5137C64.341 36.2787 64.0872 36.1353 63.8131 36.1353H61.5716C61.1413 36.1353 60.7921 36.4845 60.7921 36.9148C60.7921 37.3452 61.1413 37.6944 61.5716 37.6944H63.3718L64.7752 40.0334H33.2239L34.6272 37.6944H35.453C35.8833 37.6944 36.2326 37.3452 36.2326 36.9148C36.2326 36.4845 35.8833 36.1353 35.453 36.1353H34.1859C33.9118 36.1353 33.6581 36.2787 33.5174 36.5137L31.1784 40.4121C31.0338 40.6533 31.0304 40.9532 31.1686 41.1976C31.3068 41.442 31.5658 41.5933 31.847 41.5933H66.1521C66.4333 41.5933 66.6921 41.442 66.8305 41.1976C66.9689 40.9532 66.9652 40.6529 66.8206 40.4121Z" fill="white"/>
<path d="M62.9343 33.2232C62.8251 33.047 62.6509 32.9221 62.4494 32.8751L51.821 30.3892C51.6197 30.3419 51.4078 30.3771 51.2319 30.4858C51.0565 30.595 50.9313 30.7693 50.8842 30.9707L50.0827 34.397C49.9845 34.8161 50.2449 35.2355 50.6643 35.3333C51.0834 35.4315 51.5033 35.1711 51.601 34.7517L52.225 32.085L61.335 34.2159L59.9035 40.3363C59.8053 40.7554 60.0657 41.1748 60.485 41.2725C60.5451 41.2865 60.6047 41.2931 60.6636 41.2931C61.0177 41.2931 61.3382 41.0505 61.4215 40.6912L63.0307 33.8118C63.0782 33.6106 63.0435 33.3986 62.9343 33.2232Z" fill="white"/>
<path d="M49.4119 35.0662L48.7016 29.0577C48.6774 28.8524 48.5725 28.6648 48.4099 28.5369C48.2472 28.409 48.0419 28.3505 47.8356 28.3747L34.7954 29.9161C34.368 29.9668 34.0624 30.3542 34.1129 30.782L35.2972 40.8033C35.3443 41.2001 35.6807 41.4918 36.0706 41.4918C36.101 41.4918 36.1323 41.4897 36.1634 41.4863C36.5905 41.4356 36.8961 41.0482 36.8459 40.6204L35.7529 31.3727L47.2447 30.0145L47.8633 35.2487C47.914 35.6763 48.2996 35.9801 48.7292 35.9317C49.1566 35.8814 49.4622 35.4938 49.4119 35.0662Z" fill="white"/>
<path d="M55.578 40.5172L54.0305 34.0819C53.982 33.8811 53.8557 33.7073 53.6796 33.5992C53.5035 33.4921 53.2922 33.4585 53.0901 33.5065L40.5302 36.527C40.1115 36.6276 39.8538 37.0488 39.9543 37.4674L40.7278 40.684C40.8283 41.1031 41.2495 41.361 41.6679 41.2598C42.0866 41.1593 42.3443 40.7381 42.2438 40.3194L41.6524 37.8608L52.6963 35.2052L54.0615 40.8823C54.1472 41.2397 54.467 41.4796 54.819 41.4796C54.8795 41.4796 54.9407 41.4725 55.0022 41.4576C55.4208 41.3569 55.6785 40.9359 55.578 40.5172Z" fill="white"/>
<path d="M66.9316 40.7738C66.9102 40.3594 66.568 40.0342 66.1527 40.0342H31.8476C31.4324 40.0342 31.0902 40.3592 31.0687 40.7738L29.5093 71.1805C29.4984 71.3939 29.5756 71.6026 29.7227 71.7575C29.87 71.9121 30.0742 72.0001 30.288 72.0001H67.7117C67.9252 72.0001 68.1297 71.9124 68.2777 71.7575C68.4245 71.6026 68.5018 71.3941 68.491 71.1805L66.9316 40.7738ZM31.1085 70.4407L32.5879 41.5933H65.4115L66.891 70.4407H31.1085Z" fill="white"/>
<path d="M54.8473 43.1523C53.5574 43.1523 52.5083 44.2015 52.5083 45.4913C52.5083 46.7812 53.5574 47.8303 54.8473 47.8303C56.1371 47.8303 57.1863 46.7812 57.1863 45.4913C57.1863 44.2015 56.1371 43.1523 54.8473 43.1523ZM54.8473 46.2711C54.4172 46.2711 54.0677 45.9214 54.0677 45.4916C54.0677 45.0617 54.4174 44.712 54.8473 44.712C55.2772 44.712 55.6269 45.0617 55.6269 45.4916C55.6269 45.9214 55.2772 46.2711 54.8473 46.2711Z" fill="white"/>
<path d="M43.152 43.1523C41.8621 43.1523 40.813 44.2015 40.813 45.4913C40.813 46.7812 41.8621 47.8303 43.152 47.8303C44.4418 47.8303 45.4909 46.7812 45.4909 45.4913C45.4909 44.2015 44.4418 43.1523 43.152 43.1523ZM43.152 46.2711C42.7221 46.2711 42.3724 45.9214 42.3724 45.4916C42.3724 45.0617 42.7221 44.712 43.152 44.712C43.5818 44.712 43.9316 45.0617 43.9316 45.4916C43.9316 45.9214 43.5818 46.2711 43.152 46.2711Z" fill="white"/>
<path d="M54.847 45.4915H54.787C54.3566 45.4915 54.0074 45.8407 54.0074 46.271C54.0074 46.3775 54.0284 46.4791 54.0675 46.5716V50.5591C54.0675 53.3533 51.794 55.627 48.9996 55.627C46.2052 55.627 43.9317 53.3535 43.9317 50.5591V46.2713C43.9317 45.8409 43.5825 45.4917 43.1521 45.4917C42.7218 45.4917 42.3726 45.8409 42.3726 46.2713V50.5593C42.3726 54.2135 45.3454 57.1863 48.9996 57.1863C52.6538 57.1863 55.6266 54.2135 55.6266 50.5593V46.2713C55.6266 45.8409 55.2774 45.4915 54.847 45.4915Z" fill="white"/>
</g>
<defs>
<clipPath id="clip0">
<rect width="46" height="46" fill="white" transform="translate(26 26)"/>
</clipPath>
</defs>
</svg>
