<svg width="24" height="24" viewBox="0 0 24 24" fill="none" xmlns="http://www.w3.org/2000/svg">
<path d="M21 9.99999H7V7.11299C7 6.11599 7.678 5.18999 8.661 5.02799C8.94813 4.97914 9.24245 4.99348 9.52347 5.07004C9.80448 5.14659 10.0654 5.28351 10.2881 5.47124C10.5108 5.65898 10.6898 5.89302 10.8128 6.15705C10.9357 6.42107 10.9996 6.70874 11 6.99999H13C12.9995 6.44129 12.8821 5.88888 12.6553 5.3783C12.4284 4.86771 12.0972 4.41026 11.683 4.03538C11.2687 3.66049 10.7806 3.37648 10.25 3.2016C9.71933 3.02673 9.15797 2.96486 8.602 3.01999C6.523 3.22199 5 5.08899 5 7.17799V9.99999H3C2.73478 9.99999 2.48043 10.1054 2.29289 10.2929C2.10536 10.4804 2 10.7348 2 11V13C2 15.606 3.674 17.823 6 18.65V22H8V19H16V22H18V18.65C20.326 17.823 22 15.606 22 13V11C22 10.7348 21.8946 10.4804 21.7071 10.2929C21.5196 10.1054 21.2652 9.99999 21 9.99999Z" fill="#5D6D7F"/>
</svg>
