<svg width="96" height="43" viewBox="0 0 96 43" fill="none" xmlns="http://www.w3.org/2000/svg">
<path d="M18.0879 30.5898H6.27539V8.63477H2.33789V34H18.0879V30.5898ZM25.4004 34V8.63477H21.4629V34H25.4004ZM34.0137 34V8.63477H30.0762V34H34.0137Z" fill="#ffffff"/>
<path d="M37.0195 27.4961C37.0195 31.7148 40.1309 34.5625 44.7012 34.5625C49.6406 34.5625 52.5938 31.6445 52.5938 26.6172V8.63477H48.6562V26.5996C48.6562 29.5 47.25 31.0469 44.666 31.0469C42.4688 31.0469 40.9395 29.6055 40.8867 27.4961H37.0195ZM73.4238 30.5898H61.2598V22.7148H72.7734V19.4453H61.2598V12.0273H73.4238V8.63477H57.3223V34H73.4238V30.5898ZM93.5684 30.5898H81.4043V22.7148H92.918V19.4453H81.4043V12.0273H93.5684V8.63477H77.4668V34H93.5684V30.5898Z" fill="#F2994A"/>
</svg>
