<svg width="92" height="27" viewBox="0 0 92 27" fill="none" xmlns="http://www.w3.org/2000/svg">
<path d="M16.0879 22.5898H4.27539V0.634766H0.337891V26H16.0879V22.5898ZM23.4004 26V0.634766H19.4629V26H23.4004ZM32.0137 26V0.634766H28.0762V26H32.0137Z" fill="white"/>
<path d="M35.0195 19.4961C35.0195 23.7148 38.1309 26.5625 42.7012 26.5625C47.6406 26.5625 50.5938 23.6445 50.5938 18.6172V0.634766H46.6562V18.5996C46.6562 21.5 45.25 23.0469 42.666 23.0469C40.4688 23.0469 38.9395 21.6055 38.8867 19.4961H35.0195ZM71.4238 22.5898H59.2598V14.7148H70.7734V11.4453H59.2598V4.02734H71.4238V0.634766H55.3223V26H71.4238V22.5898ZM91.5684 22.5898H79.4043V14.7148H90.918V11.4453H79.4043V4.02734H91.5684V0.634766H75.4668V26H91.5684V22.5898Z" fill="#F2994A"/>
</svg>
